<?xml version="1.0" standalone="no"?>
<!DOCTYPE svg PUBLIC "-//W3C//DTD SVG 20010904//EN"
 "http://www.w3.org/TR/2001/REC-SVG-20010904/DTD/svg10.dtd">
<svg version="1.0" xmlns="http://www.w3.org/2000/svg"
 width="673.000000pt" height="160.000000pt" viewBox="0 0 673.000000 160.000000"
 preserveAspectRatio="xMidYMid meet">

<g transform="translate(0.000000,160.000000) scale(0.100000,-0.100000)"
fill="#000000" stroke="none">
<path d="M532 1568 c-7 -7 -12 -25 -12 -40 0 -64 -58 -151 -124 -185 -16 -8
-49 -18 -74 -22 -55 -7 -77 -34 -48 -57 11 -8 32 -14 47 -14 89 0 199 -112
199 -201 0 -32 24 -61 45 -52 15 5 19 15 30 85 12 78 114 167 191 168 43 0 72
23 58 47 -6 10 -17 19 -25 20 -106 14 -166 51 -203 125 -14 29 -26 66 -26 83
0 31 -15 55 -35 55 -6 0 -16 -5 -23 -12z m51 -197 c14 -21 42 -49 62 -61 l36
-22 -34 -24 c-19 -13 -48 -42 -65 -64 l-30 -41 -22 36 c-12 20 -40 48 -61 62
-22 14 -39 27 -39 28 0 1 18 15 40 30 22 15 49 43 61 61 11 19 22 34 23 34 2
0 15 -17 29 -39z"/>
<path d="M1410 1110 c0 -23 -10 -26 -28 -8 -20 20 -40 -7 -24 -32 11 -17 10
-20 -8 -20 -26 0 -26 -30 0 -37 16 -4 18 -9 9 -19 -16 -19 -1 -37 26 -30 17 4
24 1 28 -16 5 -18 8 -19 21 -8 9 7 16 19 16 26 0 12 4 12 20 2 24 -15 38 -3
23 21 -10 16 -9 20 8 24 25 7 25 37 -1 37 -18 0 -19 3 -8 20 16 26 -3 50 -25
31 -12 -9 -16 -7 -20 9 -7 26 -37 26 -37 0z"/>
<path d="M384 1066 c-10 -26 4 -48 28 -44 17 2 23 10 23 28 0 18 -6 26 -23 28
-13 2 -25 -3 -28 -12z"/>
<path d="M912 1068 c-7 -7 -12 -23 -12 -36 0 -13 -13 -37 -29 -53 -16 -16 -40
-29 -53 -29 -23 0 -48 -16 -48 -31 0 -16 32 -39 54 -39 29 0 64 -38 77 -83 5
-19 16 -38 24 -41 18 -7 45 19 45 44 0 28 48 80 75 80 22 0 55 23 55 39 0 15
-25 31 -48 31 -30 0 -82 52 -82 82 0 25 -17 48 -35 48 -6 0 -16 -5 -23 -12z
m42 -166 c-14 -13 -17 -13 -31 1 -14 13 -14 19 -3 32 12 14 15 14 31 -1 16
-15 17 -18 3 -32z"/>
<path d="M2020 984 c-94 -41 -136 -135 -94 -215 21 -42 70 -60 184 -70 106 -9
143 -28 148 -73 7 -61 -56 -106 -147 -106 -60 0 -92 11 -141 50 l-37 29 -23
-24 -23 -25 24 -26 c56 -61 158 -90 251 -74 112 21 171 79 172 170 1 99 -46
135 -197 149 -107 10 -134 21 -143 55 -22 87 135 129 235 63 l40 -27 21 28 22
27 -33 27 c-65 55 -185 74 -259 42z"/>
<path d="M4633 975 c-62 -32 -96 -79 -97 -139 -2 -88 50 -124 197 -137 107 -9
143 -24 149 -61 11 -68 -49 -118 -142 -118 -58 0 -102 16 -146 53 l-31 26 -27
-28 -27 -28 33 -28 c110 -93 296 -92 377 1 37 41 45 70 38 130 -9 81 -56 112
-192 123 -110 9 -145 26 -145 70 0 21 10 37 32 56 29 25 38 27 99 23 53 -3 75
-9 104 -30 l37 -26 23 26 c28 32 24 39 -46 77 -77 42 -166 45 -236 10z"/>
<path d="M5665 975 c-114 -46 -184 -157 -172 -273 11 -108 77 -197 174 -239
60 -25 168 -23 225 5 97 48 98 50 98 168 l0 104 -85 0 c-47 0 -85 -2 -85 -5 0
-4 7 -19 15 -35 13 -25 22 -30 51 -30 l35 0 -3 -52 c-3 -52 -4 -54 -48 -76
-102 -51 -234 -9 -287 92 -21 40 -20 133 1 175 23 43 61 79 105 97 66 27 174
12 223 -32 16 -15 19 -14 42 12 l25 29 -27 23 c-39 32 -125 62 -180 62 -26 0
-73 -11 -107 -25z"/>
<path d="M3315 960 c15 -29 13 -33 -100 -266 -63 -130 -115 -239 -115 -241 0
-1 17 -3 38 -3 30 0 43 6 59 28 29 39 82 52 212 52 l111 0 17 -37 c16 -33 23
-38 56 -41 21 -2 37 1 37 7 0 6 -55 128 -122 271 l-123 260 -43 0 -43 0 16
-30z m114 -241 c28 -53 51 -99 51 -102 0 -4 -31 -7 -68 -7 -38 0 -90 -6 -116
-14 -26 -8 -46 -11 -44 -7 28 72 113 240 119 234 4 -4 30 -51 58 -104z"/>
<path d="M2500 945 l0 -35 95 0 95 0 2 -227 3 -228 35 0 35 0 3 228 2 227 90
0 90 0 0 35 0 35 -225 0 -225 0 0 -35z"/>
<path d="M3850 715 l0 -265 35 0 35 0 0 100 c0 117 2 120 104 120 l66 0 42
-87 c47 -96 76 -122 144 -126 38 -2 39 -1 42 36 3 35 2 37 -27 37 -34 0 -79
47 -104 110 -15 38 -15 39 13 50 54 23 83 65 88 127 3 48 0 64 -20 93 -41 62
-72 70 -255 70 l-163 0 0 -265z m325 185 c48 -18 56 -89 14 -129 -17 -16 -39
-20 -127 -23 -59 -2 -115 -8 -124 -12 -16 -7 -18 0 -18 83 l0 91 114 0 c63 0
126 -4 141 -10z"/>
<path d="M5190 715 l0 -265 35 0 35 0 0 265 0 265 -35 0 -35 0 0 -265z"/>
<path d="M6219 945 l31 -36 0 -229 0 -230 35 0 35 0 2 184 3 184 153 -184
c144 -173 156 -184 188 -184 l34 0 0 265 0 265 -35 0 -35 0 -2 -202 -3 -201
-168 201 -169 202 -50 0 -50 0 31 -35z"/>
<path d="M347 964 c-12 -13 -8 -52 7 -57 8 -3 22 1 33 8 14 11 16 18 7 32 -12
19 -36 28 -47 17z"/>
<path d="M1252 958 c-16 -16 -15 -33 3 -48 12 -10 18 -10 30 0 20 16 19 46 -1
54 -20 8 -18 8 -32 -6z"/>
<path d="M1143 893 c-19 -7 -16 -50 4 -57 24 -10 51 20 37 41 -12 19 -23 24
-41 16z"/>
<path d="M1426 854 c-7 -19 10 -44 29 -44 19 0 36 25 29 44 -3 9 -16 16 -29
16 -13 0 -26 -7 -29 -16z"/>
<path d="M296 834 c-7 -19 10 -44 29 -44 19 0 36 25 29 44 -8 21 -50 21 -58 0z"/>
<path d="M794 816 c-10 -26 4 -48 28 -44 17 2 23 10 23 28 0 18 -6 26 -23 28
-13 2 -25 -3 -28 -12z"/>
<path d="M1020 801 c-7 -15 -6 -23 6 -35 21 -21 31 -20 44 5 9 15 8 24 -1 35
-16 20 -36 18 -49 -5z"/>
<path d="M680 731 c-7 -15 -6 -24 6 -36 19 -18 33 -16 48 7 7 12 6 21 -3 32
-18 22 -38 20 -51 -3z"/>
<path d="M262 731 c-23 -14 -10 -46 21 -49 26 -3 28 -1 25 25 -3 29 -23 39
-46 24z"/>
<path d="M1414 726 c-10 -26 4 -48 28 -44 17 2 23 10 23 28 0 18 -6 26 -23 28
-13 2 -25 -3 -28 -12z"/>
<path d="M1096 683 c-8 -21 17 -48 38 -40 9 4 16 18 16 32 0 20 -5 25 -24 25
-13 0 -27 -8 -30 -17z"/>
<path d="M566 644 c-7 -19 10 -44 30 -44 16 0 33 30 27 48 -7 18 -50 15 -57
-4z"/>
<path d="M220 615 c-16 -19 -9 -49 14 -53 35 -7 49 40 17 57 -14 8 -22 7 -31
-4z"/>
<path d="M1404 595 c-9 -23 3 -45 25 -45 23 0 35 28 20 46 -15 18 -38 18 -45
-1z"/>
<path d="M1187 578 c-21 -11 -22 -31 -3 -47 20 -16 46 -3 46 24 0 27 -19 37
-43 23z"/>
<path d="M454 566 c-10 -26 4 -48 28 -44 33 4 33 52 0 56 -13 2 -25 -3 -28
-12z"/>
<path d="M874 566 c-10 -26 4 -48 28 -44 17 2 23 10 23 28 0 18 -6 26 -23 28
-13 2 -25 -3 -28 -12z"/>
<path d="M354 486 c-10 -26 4 -48 28 -44 33 4 33 52 0 56 -13 2 -25 -3 -28
-12z"/>
<path d="M157 484 c-4 -4 -7 -16 -7 -26 0 -50 -42 -90 -105 -100 -24 -4 -27
-37 -5 -49 8 -4 30 -13 48 -20 24 -8 39 -23 49 -48 26 -61 30 -66 49 -66 13 0
23 12 32 40 17 52 38 73 79 81 51 10 68 64 20 64 -36 0 -86 37 -92 67 -4 15
-10 35 -14 43 -9 16 -43 25 -54 14z m42 -170 c-14 -14 -17 -14 -29 0 -10 13
-10 19 0 32 12 14 15 14 29 0 14 -15 14 -17 0 -32z"/>
<path d="M1384 466 c-10 -26 4 -48 28 -44 17 2 23 10 23 28 0 18 -6 26 -23 28
-13 2 -25 -3 -28 -12z"/>
<path d="M1262 458 c-16 -16 -15 -33 2 -47 22 -18 48 -2 44 28 -3 28 -27 38
-46 19z"/>
<path d="M854 425 c-4 -9 0 -23 9 -32 21 -21 49 -9 45 19 -4 28 -45 38 -54 13z"/>
<path d="M1340 335 c0 -31 26 -43 46 -23 20 20 7 48 -22 48 -19 0 -24 -5 -24
-25z"/>
<path d="M853 303 c-18 -7 -16 -52 2 -59 18 -7 45 12 45 32 0 16 -30 33 -47
27z"/>
<path d="M340 236 c-18 -22 -5 -48 22 -44 17 2 23 10 23 28 0 29 -26 38 -45
16z"/>
<path d="M1322 226 c-7 -9 -8 -27 -3 -79 1 -4 22 -7 49 -5 44 3 47 5 49 33 3
54 -4 64 -47 63 -22 0 -43 -5 -48 -12z"/>
<path d="M454 196 c-10 -26 4 -48 28 -44 17 2 23 10 23 28 0 18 -6 26 -23 28
-13 2 -25 -3 -28 -12z"/>
<path d="M854 182 c-6 -4 -13 -15 -17 -24 -3 -10 -13 -18 -21 -18 -17 0 -28
-24 -20 -45 4 -8 13 -15 20 -15 8 0 18 -8 21 -17 4 -10 11 -21 17 -25 13 -9
46 9 46 26 0 8 9 16 20 19 12 3 20 14 20 27 0 13 -8 24 -20 27 -11 3 -20 11
-20 19 0 17 -33 35 -46 26z"/>
<path d="M571 156 c-16 -20 -3 -46 24 -46 27 0 36 17 23 43 -10 20 -31 22 -47
3z"/>
<path d="M684 116 c-10 -26 4 -48 28 -44 17 2 23 10 23 28 0 18 -6 26 -23 28
-13 2 -25 -3 -28 -12z"/>
</g>
</svg>
