<?xml version="1.0" standalone="no"?>
<!DOCTYPE svg PUBLIC "-//W3C//DTD SVG 20010904//EN"
 "http://www.w3.org/TR/2001/REC-SVG-20010904/DTD/svg10.dtd">
<svg version="1.0" xmlns="http://www.w3.org/2000/svg"
 width="158.000000pt" height="158.000000pt" viewBox="0 0 158.000000 158.000000"
 preserveAspectRatio="xMidYMid meet">

<g transform="translate(0.000000,158.000000) scale(0.100000,-0.100000)"
fill="#000000" stroke="none">
<path d="M532 1548 c-7 -7 -12 -25 -12 -40 0 -64 -58 -151 -124 -185 -16 -8
-49 -18 -74 -22 -55 -7 -77 -34 -48 -57 11 -8 32 -14 47 -14 89 0 199 -112
199 -201 0 -32 24 -61 45 -52 15 5 19 15 30 85 12 78 114 167 191 168 43 0 72
23 58 47 -6 10 -17 19 -25 20 -106 14 -166 51 -203 125 -14 29 -26 66 -26 83
0 31 -15 55 -35 55 -6 0 -16 -5 -23 -12z m51 -197 c14 -21 42 -49 62 -61 l36
-22 -34 -24 c-19 -13 -48 -42 -65 -64 l-30 -41 -22 36 c-12 20 -40 48 -61 62
-22 14 -39 27 -39 28 0 1 18 15 40 30 22 15 49 43 61 61 11 19 22 34 23 34 2
0 15 -17 29 -39z"/>
<path d="M1410 1090 c0 -23 -10 -26 -28 -8 -20 20 -40 -7 -24 -32 11 -17 10
-20 -8 -20 -26 0 -26 -30 0 -37 16 -4 18 -9 9 -19 -16 -19 -1 -37 26 -30 17 4
24 1 28 -16 5 -18 8 -19 21 -8 9 7 16 19 16 26 0 12 4 12 20 2 24 -15 38 -3
23 21 -10 16 -9 20 8 24 25 7 25 37 -1 37 -18 0 -19 3 -8 20 16 26 -3 50 -25
31 -12 -9 -16 -7 -20 9 -7 26 -37 26 -37 0z"/>
<path d="M384 1046 c-10 -26 4 -48 28 -44 17 2 23 10 23 28 0 18 -6 26 -23 28
-13 2 -25 -3 -28 -12z"/>
<path d="M912 1048 c-7 -7 -12 -23 -12 -36 0 -13 -13 -37 -29 -53 -16 -16 -40
-29 -53 -29 -23 0 -48 -16 -48 -31 0 -16 32 -39 54 -39 29 0 64 -38 77 -83 5
-19 16 -38 24 -41 18 -7 45 19 45 44 0 28 48 80 75 80 22 0 55 23 55 39 0 15
-25 31 -48 31 -30 0 -82 52 -82 82 0 25 -17 48 -35 48 -6 0 -16 -5 -23 -12z
m42 -166 c-14 -13 -17 -13 -31 1 -14 13 -14 19 -3 32 12 14 15 14 31 -1 16
-15 17 -18 3 -32z"/>
<path d="M347 944 c-12 -13 -8 -52 7 -57 8 -3 22 1 33 8 14 11 16 18 7 32 -12
19 -36 28 -47 17z"/>
<path d="M1252 938 c-16 -16 -15 -33 3 -48 12 -10 18 -10 30 0 20 16 19 46 -1
54 -20 8 -18 8 -32 -6z"/>
<path d="M1143 873 c-19 -7 -16 -50 4 -57 24 -10 51 20 37 41 -12 19 -23 24
-41 16z"/>
<path d="M1426 834 c-7 -19 10 -44 29 -44 19 0 36 25 29 44 -3 9 -16 16 -29
16 -13 0 -26 -7 -29 -16z"/>
<path d="M296 814 c-7 -19 10 -44 29 -44 19 0 36 25 29 44 -8 21 -50 21 -58 0z"/>
<path d="M794 796 c-10 -26 4 -48 28 -44 17 2 23 10 23 28 0 18 -6 26 -23 28
-13 2 -25 -3 -28 -12z"/>
<path d="M1020 781 c-7 -15 -6 -23 6 -35 21 -21 31 -20 44 5 9 15 8 24 -1 35
-16 20 -36 18 -49 -5z"/>
<path d="M680 711 c-7 -15 -6 -24 6 -36 19 -18 33 -16 48 7 7 12 6 21 -3 32
-18 22 -38 20 -51 -3z"/>
<path d="M262 711 c-23 -14 -10 -46 21 -49 26 -3 28 -1 25 25 -3 29 -23 39
-46 24z"/>
<path d="M1414 706 c-10 -26 4 -48 28 -44 17 2 23 10 23 28 0 18 -6 26 -23 28
-13 2 -25 -3 -28 -12z"/>
<path d="M1096 663 c-8 -21 17 -48 38 -40 9 4 16 18 16 32 0 20 -5 25 -24 25
-13 0 -27 -8 -30 -17z"/>
<path d="M566 624 c-7 -19 10 -44 30 -44 16 0 33 30 27 48 -7 18 -50 15 -57
-4z"/>
<path d="M220 595 c-16 -19 -9 -49 14 -53 35 -7 49 40 17 57 -14 8 -22 7 -31
-4z"/>
<path d="M1404 575 c-9 -23 3 -45 25 -45 23 0 35 28 20 46 -15 18 -38 18 -45
-1z"/>
<path d="M1187 558 c-21 -11 -22 -31 -3 -47 20 -16 46 -3 46 24 0 27 -19 37
-43 23z"/>
<path d="M454 546 c-10 -26 4 -48 28 -44 33 4 33 52 0 56 -13 2 -25 -3 -28
-12z"/>
<path d="M874 546 c-10 -26 4 -48 28 -44 17 2 23 10 23 28 0 18 -6 26 -23 28
-13 2 -25 -3 -28 -12z"/>
<path d="M354 466 c-10 -26 4 -48 28 -44 33 4 33 52 0 56 -13 2 -25 -3 -28
-12z"/>
<path d="M157 464 c-4 -4 -7 -16 -7 -26 0 -50 -42 -90 -105 -100 -24 -4 -27
-37 -5 -49 8 -4 30 -13 48 -20 24 -8 39 -23 49 -48 26 -61 30 -66 49 -66 13 0
23 12 32 40 17 52 38 73 79 81 51 10 68 64 20 64 -36 0 -86 37 -92 67 -4 15
-10 35 -14 43 -9 16 -43 25 -54 14z m42 -170 c-14 -14 -17 -14 -29 0 -10 13
-10 19 0 32 12 14 15 14 29 0 14 -15 14 -17 0 -32z"/>
<path d="M1384 446 c-10 -26 4 -48 28 -44 17 2 23 10 23 28 0 18 -6 26 -23 28
-13 2 -25 -3 -28 -12z"/>
<path d="M1262 438 c-16 -16 -15 -33 2 -47 22 -18 48 -2 44 28 -3 28 -27 38
-46 19z"/>
<path d="M854 405 c-4 -9 0 -23 9 -32 21 -21 49 -9 45 19 -4 28 -45 38 -54 13z"/>
<path d="M1340 315 c0 -31 26 -43 46 -23 20 20 7 48 -22 48 -19 0 -24 -5 -24
-25z"/>
<path d="M853 283 c-18 -7 -16 -52 2 -59 18 -7 45 12 45 32 0 16 -30 33 -47
27z"/>
<path d="M340 216 c-18 -22 -5 -48 22 -44 17 2 23 10 23 28 0 29 -26 38 -45
16z"/>
<path d="M1322 206 c-7 -9 -8 -27 -3 -79 1 -4 22 -7 49 -5 44 3 47 5 49 33 3
54 -4 64 -47 63 -22 0 -43 -5 -48 -12z"/>
<path d="M454 176 c-10 -26 4 -48 28 -44 17 2 23 10 23 28 0 18 -6 26 -23 28
-13 2 -25 -3 -28 -12z"/>
<path d="M854 162 c-6 -4 -13 -15 -17 -24 -3 -10 -13 -18 -21 -18 -7 0 -16 -7
-20 -15 -8 -21 3 -45 20 -45 8 0 18 -8 21 -17 4 -10 11 -21 17 -25 13 -9 46 9
46 26 0 8 9 16 20 19 12 3 20 14 20 27 0 13 -8 24 -20 27 -11 3 -20 11 -20 19
0 17 -33 35 -46 26z"/>
<path d="M571 136 c-16 -20 -3 -46 24 -46 27 0 36 17 23 43 -10 20 -31 22 -47
3z"/>
<path d="M684 96 c-10 -26 4 -48 28 -44 17 2 23 10 23 28 0 18 -6 26 -23 28
-13 2 -25 -3 -28 -12z"/>
</g>
</svg>
